<?xml version="1.0" standalone="no"?>
<!DOCTYPE svg PUBLIC "-//W3C//DTD SVG 20010904//EN"
 "http://www.w3.org/TR/2001/REC-SVG-20010904/DTD/svg10.dtd">
<svg version="1.0" xmlns="http://www.w3.org/2000/svg"
 width="865.000000pt" height="866.000000pt" viewBox="0 0 865.000000 866.000000"
 preserveAspectRatio="xMidYMid meet">

<g transform="translate(0.000000,866.000000) scale(0.100000,-0.100000)"
fill="#000000" stroke="none">
<path d="M4050 8644 c-488 -42 -869 -129 -1280 -291 -1412 -558 -2427 -1810
-2680 -3306 -41 -244 -54 -410 -54 -712 0 -393 34 -682 119 -1031 399 -1626
1715 -2881 3365 -3208 298 -59 436 -71 830 -71 394 0 532 12 830 71 853 169
1616 578 2230 1195 593 595 1001 1351 1169 2168 62 298 64 324 68 819 4 389 2
485 -12 595 -155 1240 -847 2357 -1890 3052 -581 387 -1198 615 -1900 701
-123 15 -681 28 -795 18z m835 -63 c765 -104 1448 -384 2047 -838 593 -449
1074 -1067 1361 -1749 378 -900 439 -1899 173 -2827 -206 -715 -573 -1336
-1100 -1862 -716 -714 -1635 -1141 -2656 -1236 -69 -6 -231 -11 -360 -11 -129
0 -291 5 -360 11 -1020 95 -1937 521 -2651 1231 -358 356 -627 733 -843 1181
-367 760 -500 1596 -385 2434 159 1169 798 2219 1772 2913 575 409 1266 675
1967 756 206 24 204 24 555 21 265 -3 360 -7 480 -24z"/>
<path d="M4021 8234 c-96 -8 -177 -16 -179 -18 -2 -2 0 -32 4 -66 l7 -62 13
38 c19 56 65 94 113 94 l38 0 6 -57 c3 -32 11 -140 18 -240 l13 -183 55 1 c31
1 47 4 35 6 -22 4 -20 -18 -51 401 l-6 82 49 0 c58 0 86 -17 114 -68 l20 -37
-3 60 -2 60 -35 1 c-19 1 -113 -4 -209 -12z"/>
<path d="M4450 8236 c0 -7 -3 -35 -6 -62 l-6 -49 31 48 c22 34 39 49 61 53 45
9 26 24 -31 24 -35 0 -49 -4 -49 -14z"/>
<path d="M4603 8233 c22 -4 26 -9 22 -26 -2 -12 -12 -116 -21 -232 -13 -164
-20 -213 -32 -222 -13 -11 -8 -13 34 -13 48 0 49 1 51 33 1 17 10 125 19 240
l18 207 33 0 c19 0 47 -7 62 -15 28 -14 60 -67 62 -102 2 -32 17 29 18 73 l1
41 -127 12 c-122 11 -201 13 -140 4z"/>
<path d="M5048 8183 c6 -2 18 -2 25 0 6 3 1 5 -13 5 -14 0 -19 -2 -12 -5z"/>
<path d="M3490 8155 c-85 -23 -97 -35 -14 -14 54 14 95 0 125 -43 12 -16 23
-27 25 -25 3 2 -1 27 -8 56 -13 59 -9 58 -128 26z"/>
<path d="M5095 8174 c14 -5 -78 -464 -95 -474 -6 -4 17 -13 52 -19 35 -7 72
-14 83 -17 16 -4 17 -3 5 5 -8 6 -26 11 -39 11 -19 0 -22 4 -18 23 3 12 25
118 48 236 l42 213 39 -5 c59 -8 38 3 -34 19 -60 13 -104 17 -83 8z"/>
<path d="M3330 8118 c-19 -5 -52 -14 -74 -19 -21 -6 -36 -12 -34 -14 2 -3 19
-1 36 4 17 5 34 6 36 3 6 -10 106 -432 106 -448 0 -7 -16 -16 -37 -20 -21 -4
-33 -9 -27 -11 11 -4 395 84 402 92 3 2 -1 35 -9 72 l-13 68 -15 -52 c-22 -74
-53 -100 -142 -123 -41 -11 -77 -20 -81 -20 -6 0 -58 208 -58 235 0 19 81 31
109 16 11 -7 28 -25 37 -42 8 -17 17 -29 19 -27 4 4 -43 199 -50 206 -3 3 -5
-11 -5 -30 0 -47 -31 -85 -76 -94 -19 -3 -37 -4 -40 -1 -4 3 -16 49 -29 102
l-23 97 22 8 c20 8 20 9 1 8 -11 0 -36 -4 -55 -10z"/>
<path d="M3035 8029 c-11 -5 -45 -20 -75 -34 -30 -14 -47 -23 -37 -20 68 20
58 30 131 -145 37 -89 66 -164 64 -166 -2 -2 -74 46 -158 107 -85 61 -165 118
-177 126 -21 14 -29 13 -93 -13 -70 -27 -93 -44 -31 -23 18 7 36 8 40 3 12
-13 183 -425 179 -430 -2 -2 -19 -10 -38 -18 -19 -8 -30 -15 -23 -16 15 0 143
57 143 65 0 3 -14 -2 -31 -11 -17 -8 -34 -12 -38 -7 -6 7 -53 118 -156 367
l-17 39 29 -18 c15 -10 113 -79 217 -153 192 -136 216 -151 216 -135 0 5 -40
105 -90 222 -49 118 -90 220 -90 228 0 7 6 13 13 13 7 0 22 7 33 15 22 16 18
18 -11 4z"/>
<path d="M5939 7859 c-64 -37 -87 -107 -55 -167 8 -15 44 -56 80 -92 74 -73
88 -108 62 -159 -18 -34 -62 -61 -98 -61 -34 1 -99 33 -128 64 -22 24 -25 37
-25 97 0 38 -1 69 -2 69 -5 0 -63 -120 -63 -129 0 -6 7 -8 16 -4 10 3 29 -7
52 -30 72 -68 174 -97 235 -66 38 20 76 61 88 96 17 51 -2 90 -86 173 -89 88
-106 125 -78 173 14 24 30 35 63 44 45 11 45 11 10 12 -19 0 -51 -9 -71 -20z"/>
<path d="M6107 7833 c33 -31 49 -83 41 -128 -7 -36 -1 -31 27 25 30 59 30 60
7 60 -10 0 -29 12 -43 26 -13 14 -33 31 -44 36 -11 6 -6 -2 12 -19z"/>
<path d="M4518 7753 c7 -3 16 -2 19 1 4 3 -2 6 -13 5 -11 0 -14 -3 -6 -6z"/>
<path d="M2390 7721 c-7 -14 -25 -23 -51 -27 -62 -10 -129 -60 -159 -119 -34
-67 -35 -180 -3 -241 26 -49 90 -108 140 -130 94 -40 213 -12 270 63 45 59 72
85 83 78 17 -11 11 4 -31 70 l-41 65 24 21 23 21 -25 -14 c-77 -45 -160 -101
-156 -105 3 -3 18 4 34 16 17 12 34 21 39 21 5 0 20 -18 32 -41 34 -59 25
-113 -25 -156 -91 -79 -185 -43 -285 110 -76 117 -87 211 -32 269 69 73 151
78 220 15 36 -32 33 -17 -8 46 -35 54 -39 57 -49 38z"/>
<path d="M3993 7733 c9 -2 23 -2 30 0 6 3 -1 5 -18 5 -16 0 -22 -2 -12 -5z"/>
<path d="M4683 7733 c9 -2 25 -2 35 0 9 3 1 5 -18 5 -19 0 -27 -2 -17 -5z"/>
<path d="M4948 7703 c6 -2 18 -2 25 0 6 3 1 5 -13 5 -14 0 -19 -2 -12 -5z"/>
<path d="M6403 7613 c-18 -26 -31 -49 -29 -51 2 -2 19 6 37 17 19 12 48 21 64
21 33 0 95 -33 95 -51 0 -6 -60 -95 -132 -199 l-133 -188 -35 20 c-51 31 -25
8 55 -49 83 -58 113 -75 68 -38 l-31 26 136 194 136 194 28 -17 c47 -28 61
-57 56 -120 l-5 -56 23 29 c27 34 49 74 43 78 -28 21 -338 237 -341 237 -1 0
-17 -22 -35 -47z"/>
<path d="M4150 7444 c-739 -52 -1420 -350 -1954 -855 -450 -425 -771 -991
-905 -1594 -65 -295 -88 -696 -57 -995 71 -673 337 -1271 791 -1781 399 -448
966 -791 1555 -939 267 -67 471 -91 770 -91 535 0 984 109 1450 353 867 452
1476 1290 1639 2258 48 286 53 683 11 965 -207 1400 -1306 2477 -2715 2660
-116 15 -474 27 -585 19z m599 -49 c685 -95 1306 -401 1786 -880 521 -519 835
-1184 906 -1919 17 -173 6 -556 -19 -721 -66 -423 -196 -789 -406 -1143 -405
-681 -1080 -1197 -1843 -1406 -296 -82 -504 -109 -823 -109 -331 0 -567 33
-876 124 -367 107 -764 315 -1064 556 -116 93 -335 308 -432 423 -403 479
-657 1079 -718 1699 -13 133 -13 459 0 592 46 460 198 917 436 1310 397 657
1052 1161 1784 1374 152 44 380 90 515 104 55 6 116 13 135 15 80 9 511 -4
619 -19z"/>
<path d="M4376 6865 c-14 -108 -36 -395 -36 -475 0 -83 21 -195 40 -214 14
-14 36 47 50 137 8 57 9 106 1 185 -6 59 -16 168 -22 242 -14 161 -23 197 -33
125z"/>
<path d="M4191 6758 c-1 -9 8 -99 19 -200 20 -183 42 -294 62 -313 20 -19 0
165 -37 340 -39 182 -43 199 -44 173z"/>
<path d="M4536 6583 c-54 -261 -62 -446 -12 -275 15 52 60 434 54 454 -2 5
-21 -75 -42 -179z"/>
<path d="M4090 6555 c0 -19 71 -232 86 -255 15 -25 15 -24 10 16 -3 23 -24 86
-47 140 -41 98 -49 115 -49 99z"/>
<path d="M4632 6457 c-24 -57 -45 -121 -48 -143 -5 -39 -5 -39 10 -14 17 28
90 249 84 256 -2 2 -23 -43 -46 -99z"/>
<path d="M4025 6477 c9 -43 46 -139 52 -133 6 6 -14 67 -39 121 -15 30 -18 33
-13 12z"/>
<path d="M4717 6430 c-27 -71 -36 -109 -17 -80 13 21 53 140 48 145 -2 2 -16
-27 -31 -65z"/>
<path d="M3340 6425 c-153 -25 -333 -91 -494 -182 -56 -32 -81 -42 -89 -34
-21 21 -86 13 -112 -14 -32 -31 -34 -96 -6 -124 20 -20 16 -32 -414 -1260
l-435 -1239 27 -52 c56 -108 235 -194 510 -246 133 -25 522 -31 679 -10 159
21 298 58 403 107 106 50 162 95 191 155 l22 47 -433 1234 -432 1234 22 40
c16 28 21 48 16 68 -6 28 -2 32 62 69 134 78 325 150 467 177 103 20 296 20
407 0 89 -15 233 -62 304 -97 79 -40 183 -120 258 -197 l77 -79 0 -1751 0
-1751 -137 -1 c-76 0 -167 -2 -203 -4 -36 -1 -107 -4 -157 -6 -51 -2 -93 -6
-93 -9 0 -3 -28 -5 -63 -4 -80 1 -282 -21 -373 -41 -39 -9 -79 -12 -89 -9 -14
6 -16 4 -10 -6 6 -10 4 -12 -10 -7 -19 8 -82 -11 -103 -30 -7 -7 -24 -16 -38
-19 -19 -5 -24 -13 -24 -39 0 -19 7 -40 15 -48 11 -11 12 -16 3 -19 -7 -3 10
-10 37 -17 28 -7 93 -25 145 -41 90 -28 113 -31 235 -31 28 1 51 -3 53 -8 2
-5 13 -7 25 -4 18 4 19 3 7 -6 -12 -9 -9 -11 15 -10 41 0 268 -8 395 -16 124
-7 917 -9 975 -2 22 3 58 10 80 16 22 5 49 8 61 5 12 -3 50 0 85 7 35 6 78 13
94 15 78 9 102 13 125 22 14 5 31 7 38 5 6 -3 12 1 12 7 0 7 7 10 16 6 9 -4
23 -1 32 6 8 7 18 12 21 11 9 -4 74 16 91 26 30 20 2 18 -135 -10 -77 -15
-166 -28 -197 -29 -31 0 -90 -4 -130 -10 -40 -5 -93 -12 -118 -15 -35 -4 -454
-17 -505 -16 -5 0 -122 2 -260 5 -137 3 -250 5 -250 6 0 1 -33 3 -73 5 -40 2
-94 6 -120 9 -26 4 -115 11 -198 16 -158 10 -322 37 -439 71 -63 19 -68 22
-51 34 53 39 394 92 701 109 55 3 114 10 132 15 17 5 81 7 142 5 72 -3 111 -1
111 6 0 5 10 10 23 10 18 0 19 -2 7 -10 -10 -6 1 -8 35 -3 63 8 396 7 575 -2
74 -4 153 -7 175 -8 22 -1 43 2 46 7 4 4 17 2 30 -5 13 -8 58 -15 99 -16 94
-3 133 -8 191 -24 45 -11 79 -8 79 8 0 4 -24 9 -53 10 -28 2 -74 8 -100 14
-26 6 -56 9 -67 6 -10 -3 -20 -1 -22 5 -2 5 -30 11 -63 14 -33 2 -76 7 -95 10
-19 3 -51 6 -70 8 -19 1 -51 6 -70 9 -19 4 -152 9 -295 11 -143 3 -261 5 -262
5 -2 1 -3 788 -3 1751 l0 1750 66 70 c157 166 362 272 602 310 74 12 257 15
329 5 173 -24 403 -112 573 -220 39 -25 40 -27 25 -48 -19 -27 -19 -86 -1
-113 13 -18 -24 -130 -414 -1235 l-429 -1214 15 -47 c40 -123 239 -224 539
-275 170 -28 586 -26 747 5 320 60 496 161 522 297 4 23 -95 313 -423 1240
-398 1125 -427 1211 -412 1228 9 11 16 36 16 59 0 31 -6 45 -28 64 -16 13 -39
24 -53 24 -14 0 -70 26 -124 59 -230 136 -483 212 -703 211 -310 -1 -568 -102
-766 -300 l-96 -95 -90 91 c-141 142 -300 229 -504 275 -115 26 -337 33 -451
14z m-650 -1615 l0 -1230 -431 0 c-412 0 -430 1 -427 18 4 23 851 2442 855
2442 2 0 3 -553 3 -1230z m415 155 c197 -561 386 -1102 421 -1202 l63 -183
-434 0 -435 0 1 1233 c0 1022 3 1227 14 1202 7 -16 174 -489 370 -1050z m2945
-190 l0 -1215 -435 0 c-239 0 -435 3 -435 7 0 20 854 2423 861 2423 5 0 9
-547 9 -1215z m55 1198 c26 -68 845 -2395 845 -2403 0 -6 -156 -10 -435 -10
l-435 0 0 1215 c0 706 4 1215 9 1215 5 0 12 -8 16 -17z"/>
<path d="M6093 3093 c9 -2 25 -2 35 0 9 3 1 5 -18 5 -19 0 -27 -2 -17 -5z"/>
<path d="M6025 3066 c-43 -43 -45 -106 -5 -144 11 -10 51 -28 89 -40 109 -36
141 -94 82 -153 -31 -31 -20 -40 17 -13 29 20 52 66 52 103 0 49 -40 86 -116
107 -114 31 -153 86 -99 139 13 14 20 25 14 25 -5 0 -21 -11 -34 -24z"/>
<path d="M6176 3068 c13 -11 28 -34 33 -51 9 -30 9 -29 10 18 l1 50 -34 1 -34
0 24 -18z"/>
<path d="M2638 3023 l32 -4 0 -184 0 -184 -32 -4 c-18 -2 8 -4 57 -4 50 0 77
2 60 6 l-30 6 -2 183 -3 182 40 0 c55 0 80 -26 80 -83 0 -24 -6 -52 -14 -63
-13 -17 -12 -21 5 -40 13 -14 22 -44 28 -89 6 -53 13 -72 31 -87 23 -19 75
-25 84 -9 4 5 -2 7 -12 4 -27 -7 -41 16 -48 83 -7 63 -33 104 -66 104 -10 0
-18 5 -18 10 0 6 6 10 14 10 21 0 56 49 56 77 0 70 -49 94 -192 91 -57 0 -88
-3 -70 -5z"/>
<path d="M5981 2765 l-1 -60 47 -1 c45 -2 46 -1 21 12 -22 12 -42 43 -61 94
-3 8 -6 -12 -6 -45z"/>
<path d="M6098 2693 c12 -2 30 -2 40 0 9 3 -1 5 -23 4 -22 0 -30 -2 -17 -4z"/>
<path d="M5511 2411 c-8 -5 1 -8 27 -7 23 0 35 4 29 8 -16 10 -39 10 -56 -1z"/>
<path d="M5625 2380 c3 -5 14 -10 23 -10 15 0 15 2 2 10 -20 13 -33 13 -25 0z"/>
<path d="M5665 2298 l-20 -21 23 12 c12 6 22 16 22 21 0 13 -2 12 -25 -12z"/>
<path d="M6942 7275 l27 -28 -135 -141 c-148 -156 -166 -186 -146 -254 12 -40
66 -103 105 -123 12 -6 3 5 -20 25 -51 44 -63 88 -38 135 9 18 76 94 150 169
l133 137 31 -29 c17 -17 31 -26 31 -20 0 5 -37 42 -83 83 -45 41 -70 62 -55
46z"/>
<path d="M1720 7248 c0 -7 43 -123 95 -257 l94 -243 -22 -18 c-12 -10 -20 -21
-17 -23 3 -3 28 17 57 44 28 27 49 49 45 49 -3 0 -16 -10 -29 -22 -13 -12 -25
-20 -26 -17 -2 2 -20 46 -40 96 l-35 93 61 54 61 54 76 -39 c112 -57 109 -53
80 -86 -14 -15 2 -4 35 24 33 28 69 61 80 74 l20 24 -25 -22 -25 -22 -239 125
c-131 68 -240 124 -242 124 -2 0 -4 -6 -4 -12z m142 -136 l88 -48 -48 -47
c-26 -26 -53 -47 -59 -47 -6 0 -18 19 -26 43 -8 23 -24 66 -36 95 -11 28 -17
52 -13 52 4 0 46 -22 94 -48z"/>
<path d="M7160 7063 c0 -4 11 -19 25 -33 l25 -26 -143 -142 c-101 -100 -151
-142 -168 -143 -17 -1 -19 -3 -6 -6 30 -8 82 34 206 165 l120 127 33 -30 c18
-16 6 -2 -27 33 -61 64 -65 67 -65 55z"/>
<path d="M1420 6936 c0 -8 -25 -34 -55 -56 -74 -55 -99 -104 -100 -195 0 -59
5 -78 30 -124 54 -98 159 -151 267 -137 91 12 154 62 195 154 12 29 31 56 40
59 13 5 6 16 -37 54 -30 26 -56 47 -57 45 -2 -2 8 -23 22 -47 38 -67 31 -125
-23 -182 -66 -70 -131 -72 -232 -6 -117 76 -190 166 -190 237 0 48 52 117 103
137 44 17 59 15 132 -10 21 -7 -13 26 -67 66 -23 17 -28 18 -28 5z"/>
<path d="M7409 6791 c12 -16 21 -32 21 -35 0 -3 -86 -67 -191 -142 l-192 -137
-29 34 c-28 32 43 -77 118 -182 69 -95 203 -131 301 -81 138 71 189 200 129
327 -21 45 -162 245 -173 245 -2 0 5 -13 16 -29z m131 -187 c40 -81 18 -159
-67 -234 -98 -87 -213 -116 -284 -72 -19 12 -50 42 -68 67 -28 40 -31 49 -20
60 8 8 95 72 194 144 l180 129 22 -26 c13 -15 32 -45 43 -68z"/>
<path d="M6828 6713 c7 -3 16 -2 19 1 4 3 -2 6 -13 5 -11 0 -14 -3 -6 -6z"/>
<path d="M1006 6379 c3 -6 -12 -30 -34 -52 -41 -44 -62 -77 -62 -99 0 -7 9 6
19 29 29 62 100 91 170 68 36 -11 23 2 -34 34 -59 33 -70 37 -59 20z"/>
<path d="M1217 6265 c-16 -8 -60 -44 -98 -79 -38 -35 -81 -67 -96 -71 -38 -9
-83 13 -99 49 -12 28 -13 29 -14 8 0 -38 32 -81 77 -103 58 -28 93 -15 179 62
97 88 138 97 196 42 36 -34 43 -72 23 -119 -36 -88 -105 -127 -185 -106 -51
13 -44 2 25 -37 64 -36 65 -36 65 -15 0 10 21 39 46 66 79 84 95 165 49 243
-38 66 -108 91 -168 60z"/>
<path d="M7780 6236 c0 -4 7 -21 16 -37 8 -17 14 -32 12 -33 -15 -12 -412
-216 -418 -216 -5 0 -16 14 -25 30 -9 17 -17 30 -20 30 -2 0 19 -45 48 -99 29
-55 53 -98 55 -96 2 2 -4 17 -13 35 -9 18 -15 33 -13 34 15 12 412 216 418
216 5 0 16 -13 25 -30 9 -16 18 -30 20 -30 4 0 -91 186 -102 199 -2 2 -3 1 -3
-3z"/>
<path d="M7714 5776 c-86 -40 -156 -147 -153 -235 0 -19 4 -14 15 21 20 64 75
109 183 149 103 38 191 44 234 16 52 -34 87 -116 73 -172 -17 -67 -117 -135
-251 -170 -73 -19 -106 -19 -148 -1 -41 17 -63 42 -81 92 -8 22 -15 31 -15 20
-2 -51 77 -137 152 -165 41 -16 152 -13 192 3 120 50 188 184 154 303 -36 132
-218 203 -355 139z"/>
<path d="M745 5581 c-118 -31 -195 -121 -195 -229 0 -61 48 -162 94 -197 108
-82 263 -76 352 13 35 34 64 90 63 119 0 10 -5 3 -11 -16 -14 -50 -35 -77 -73
-95 -86 -41 -298 9 -376 90 -31 32 -34 40 -34 99 0 73 19 108 76 138 69 37
265 -1 353 -68 29 -22 46 -45 59 -80 l17 -50 -6 45 c-12 92 -79 182 -158 215
-43 18 -123 26 -161 16z"/>
<path d="M585 4896 c-79 -30 -157 -146 -154 -230 0 -12 6 1 13 27 27 101 106
144 244 134 81 -6 129 -21 175 -57 38 -30 50 -56 57 -130 l7 -65 1 70 c2 116
-40 195 -124 235 -59 29 -163 36 -219 16z"/>
<path d="M8240 4873 c0 -28 -4 -32 -37 -37 -33 -5 -321 -32 -408 -39 -27 -2
-31 1 -36 33 -5 25 -6 20 -3 -15 2 -27 4 -68 5 -90 0 -32 2 -36 9 -19 7 18 24
22 201 38 107 10 213 20 236 23 39 5 42 4 46 -23 3 -16 3 12 0 61 -5 88 -13
129 -13 68z"/>
<path d="M7773 4630 c0 -25 2 -35 4 -22 2 12 2 32 0 45 -2 12 -4 2 -4 -23z"/>
<path d="M420 4579 c0 -19 -2 -56 -4 -84 -3 -35 -2 -40 3 -15 5 32 9 35 36 33
17 -2 120 -12 230 -23 110 -11 203 -20 207 -20 4 0 8 -16 8 -37 0 -63 7 -32
13 57 3 47 3 77 0 68 -6 -22 14 -22 -248 3 -169 17 -223 25 -232 37 -11 13
-13 11 -13 -19z"/>
<path d="M7781 4550 c-1 -19 2 -51 5 -71 7 -39 -1 -37 114 -22 l45 5 -43 13
c-59 18 -91 41 -107 78 l-14 32 0 -35z"/>
<path d="M7787 4222 c-5 -68 -6 -126 -3 -129 3 -4 6 18 6 47 l0 53 123 -8
c154 -10 174 -11 274 -13 l82 -2 4 -42 c2 -27 4 -15 5 32 l2 75 -67 3 c-38 2
-138 7 -223 12 -85 6 -163 10 -172 10 -13 0 -18 10 -20 43 -2 23 -7 -13 -11
-81z"/>
<path d="M896 4283 c8 -40 -19 -59 -96 -69 -30 -4 -65 -11 -77 -15 -27 -10
-53 -49 -62 -92 l-7 -32 -18 38 c-55 114 -209 69 -205 -60 1 -21 4 -28 6 -17
8 39 40 58 107 62 55 4 67 1 85 -17 12 -12 21 -33 22 -48 1 -20 4 -15 10 17
11 59 34 76 125 91 99 16 124 35 124 97 0 26 -5 54 -10 62 -7 11 -8 6 -4 -17z"/>
<path d="M8282 4285 c0 -16 2 -22 5 -12 2 9 2 23 0 30 -3 6 -5 -1 -5 -18z"/>
<path d="M8041 4123 c-1 -40 -30 -71 -74 -80 l-32 -7 45 -7 c25 -4 74 -8 110
-7 61 0 63 0 33 11 -45 17 -65 39 -73 84 -8 38 -8 38 -9 6z"/>
<path d="M8262 4029 c-3 -38 -36 -76 -80 -90 l-37 -13 59 -8 c33 -4 61 -6 63
-4 2 2 2 35 0 72 -1 38 -4 57 -5 43z"/>
<path d="M918 4008 l-3 -33 -119 -8 c-95 -7 -121 -6 -127 5 -6 9 -9 9 -9 1 0
-14 -31 -20 -142 -27 l-78 -6 0 27 c0 14 -2 24 -5 22 -2 -3 -1 -48 4 -100 4
-52 9 -77 10 -57 1 30 5 39 24 42 17 4 251 20 422 29 28 2 30 -1 36 -38 4 -22
4 7 1 65 -5 112 -9 132 -14 78z"/>
<path d="M7770 3970 l0 -60 73 0 72 0 -41 19 c-42 19 -84 63 -84 87 0 8 -4 14
-10 14 -6 0 -10 -27 -10 -60z"/>
<path d="M951 3718 c-1 -10 -81 -72 -208 -159 -211 -144 -240 -165 -232 -173
2 -2 38 -6 79 -10 41 -3 64 -2 50 2 -22 7 -19 12 58 65 45 32 86 55 92 52 5
-3 10 0 10 7 0 7 39 39 85 71 l85 58 6 -31 c4 -17 10 -33 14 -35 4 -3 -1 30
-11 73 -24 92 -27 102 -28 80z"/>
<path d="M7870 3711 c-53 -17 -108 -51 -137 -85 -45 -50 -57 -96 -49 -184 4
-48 2 -80 -5 -88 -11 -13 24 -27 104 -40 31 -6 37 -11 38 -33 1 -14 12 17 25
69 13 52 22 99 20 105 -1 5 -8 -12 -14 -38 -12 -45 -14 -47 -40 -41 -92 22
-128 64 -119 141 6 58 30 91 85 115 56 25 134 20 250 -17 95 -30 147 -77 162
-146 l9 -44 -4 52 c-7 89 -63 171 -146 214 -43 22 -141 33 -179 20z"/>
<path d="M805 3453 c3 -18 8 -46 11 -63 6 -29 5 -30 -32 -31 -38 -2 -37 -2 11
-9 28 -5 64 -8 80 -8 29 1 29 1 -5 7 -32 6 -35 9 -52 71 -10 36 -16 50 -13 33z"/>
<path d="M8165 3377 c-20 -43 -58 -69 -120 -83 -28 -6 -27 -7 25 -20 75 -18
78 -18 73 10 -3 15 3 36 15 54 19 25 40 83 31 82 -2 -1 -13 -20 -24 -43z"/>
<path d="M1035 3368 c5 -34 4 -37 -22 -41 -27 -4 -27 -4 3 -6 27 -1 32 -6 38
-33 3 -17 8 -29 11 -27 2 3 -5 36 -15 74 -11 39 -17 53 -15 33z"/>
<path d="M688 3363 c12 -2 30 -2 40 0 9 3 -1 5 -23 4 -22 0 -30 -2 -17 -4z"/>
<path d="M928 3333 c12 -2 30 -2 40 0 9 3 -1 5 -23 4 -22 0 -30 -2 -17 -4z"/>
<path d="M7611 3208 c-5 -13 -18 -44 -30 -70 -11 -27 -18 -48 -15 -48 3 0 12
17 20 37 l16 36 91 -90 c51 -49 121 -118 157 -152 l65 -61 -105 2 c-63 2 -104
7 -103 13 1 6 4 19 8 30 3 11 -2 5 -12 -13 -10 -20 -22 -31 -31 -27 -7 3 -54
5 -103 5 l-89 0 15 37 c8 20 14 38 12 40 -4 3 -26 -46 -68 -149 -10 -27 -16
-48 -14 -48 3 0 10 12 15 26 l10 27 270 -8 c173 -5 270 -4 270 3 0 5 -85 89
-190 188 -104 98 -190 181 -190 185 0 4 4 19 10 33 5 14 7 26 5 26 -3 0 -9
-10 -14 -22z"/>
<path d="M1026 3155 c-33 -14 -61 -27 -63 -29 -2 -2 23 -3 56 -2 72 1 105 -19
139 -84 27 -54 28 -105 2 -147 -63 -104 -311 -188 -397 -134 -40 25 -73 88
-73 137 0 41 31 98 62 115 38 20 10 20 -43 -1 -66 -26 -65 -26 -48 -46 7 -8
16 -42 20 -74 9 -77 50 -136 121 -175 103 -57 243 -34 319 53 90 102 92 236 6
338 -15 18 -27 41 -27 53 0 26 -1 26 -74 -4z"/>
<path d="M7732 2965 c-17 -37 -14 -45 4 -12 9 16 14 31 11 33 -2 2 -9 -7 -15
-21z"/>
<path d="M7357 2643 c-153 -244 -197 -315 -197 -321 0 -6 98 -70 125 -81 5 -2
-3 10 -18 28 -36 44 -53 101 -39 139 18 54 81 144 95 136 6 -4 99 -61 204
-127 l193 -119 -21 -30 c-12 -16 -19 -31 -17 -34 3 -2 30 37 62 87 31 51 55
94 52 96 -2 3 -12 -9 -21 -26 -8 -17 -17 -31 -20 -31 -2 0 -94 57 -205 126
l-200 126 21 34 c11 19 18 34 15 34 -3 0 -16 -17 -29 -37z"/>
<path d="M1257 2624 c-60 -37 -70 -52 -23 -34 86 32 179 -23 207 -123 21 -76
-52 -168 -188 -240 -116 -61 -179 -61 -240 0 -22 23 -31 28 -24 14 19 -34 87
-78 141 -91 132 -32 270 43 315 169 34 98 3 209 -76 272 -21 17 -39 39 -39 50
0 26 -6 24 -73 -17z"/>
<path d="M970 2430 c-25 -16 -49 -32 -55 -34 -5 -2 0 -11 11 -20 12 -8 27 -36
33 -62 7 -25 14 -44 16 -42 3 2 1 18 -4 34 -10 37 7 95 40 130 31 33 13 30
-41 -6z"/>
<path d="M6949 2072 c-102 -117 -134 -160 -126 -170 5 -7 32 -31 59 -54 l49
-41 -26 48 c-27 52 -32 94 -13 128 15 29 100 127 109 127 4 0 47 -34 96 -76
48 -42 90 -78 92 -80 2 -2 -2 -12 -10 -21 -13 -16 -12 -17 3 -4 16 12 24 8 74
-35 31 -27 68 -59 82 -70 l26 -21 -43 -52 c-24 -28 -53 -58 -64 -66 -25 -17
-74 -19 -111 -5 -14 5 -26 6 -26 2 0 -9 76 -72 87 -71 7 0 91 95 227 257 32
37 33 41 9 18 -20 -18 -36 -25 -45 -20 -11 7 -290 247 -338 290 -12 12 -10 18
15 44 16 16 25 30 19 30 -5 -1 -70 -72 -145 -158z"/>
<path d="M1645 2179 l26 -32 -33 -27 c-18 -15 -100 -84 -183 -153 l-150 -126
-27 30 c-16 16 -28 26 -28 22 0 -12 140 -177 140 -166 0 6 -9 18 -20 28 -11
10 -20 22 -20 26 0 4 82 76 183 159 l182 151 28 -33 c15 -18 27 -28 27 -24 0
10 -138 176 -146 176 -3 0 6 -14 21 -31z"/>
<path d="M1839 1944 c30 -22 23 -50 -34 -122 -50 -63 -58 -108 -29 -163 15
-29 15 -30 -5 -20 -36 20 -96 13 -124 -13 -32 -29 -42 -64 -32 -113 7 -38 67
-103 180 -196 41 -34 45 -35 21 -9 l-30 32 25 27 c13 15 87 94 163 176 l139
148 31 -28 c17 -15 9 -4 -19 25 -27 30 -68 68 -90 85 l-40 31 29 -31 c19 -22
25 -36 20 -46 -13 -22 -155 -167 -164 -167 -4 0 -24 18 -44 40 -50 55 -48 82
14 165 61 83 66 121 21 166 -16 16 -35 29 -42 29 -8 0 -3 -7 10 -16z m-31
-338 c15 -8 37 -25 49 -38 l21 -23 -74 -79 -75 -79 -35 34 c-24 24 -34 42 -34
64 0 41 36 93 80 116 41 23 35 22 68 5z"/>
<path d="M7070 1851 c30 -28 68 -61 84 -73 l28 -21 -23 41 c-21 35 -22 45 -12
71 11 29 10 30 -9 20 -20 -11 -65 -9 -103 5 -11 4 5 -15 35 -43z"/>
<path d="M6527 1649 c-32 -22 -57 -42 -57 -45 0 -7 20 5 42 23 15 14 18 11 27
-24 6 -21 17 -60 26 -88 8 -27 15 -57 15 -65 0 -8 -29 -36 -64 -62 l-64 -46
-86 57 -87 58 33 27 c18 15 6 9 -27 -13 -33 -23 -73 -52 -90 -66 -27 -24 -28
-25 -3 -10 27 16 27 16 244 -125 227 -148 244 -158 244 -143 0 5 -32 123 -71
263 l-70 255 28 22 c46 37 20 26 -40 -18z m87 -316 c14 -50 26 -97 26 -102 0
-6 -38 14 -85 45 -47 32 -85 60 -85 63 1 6 114 91 116 88 1 -1 13 -43 28 -94z"/>
<path d="M2535 1341 c-146 -36 -235 -173 -205 -316 23 -109 109 -185 210 -185
113 0 194 46 245 140 24 46 29 66 29 125 0 58 -5 79 -28 122 -52 96 -148 139
-251 114z m151 -28 c111 -51 111 -179 0 -346 -73 -110 -149 -141 -236 -95 -59
32 -82 75 -77 145 7 105 127 291 200 312 36 10 67 5 113 -16z"/>
<path d="M5917 1273 c-2 -4 7 -109 22 -233 14 -124 27 -214 29 -200 1 14 -6
94 -16 178 -10 83 -17 152 -15 152 7 0 308 -271 311 -280 2 -5 -11 -16 -27
-25 -17 -8 -31 -18 -31 -21 0 -7 171 84 185 98 6 6 -3 4 -20 -5 l-30 -15 -145
130 c-236 211 -258 229 -263 221z"/>
<path d="M3140 1086 c19 -7 35 -20 34 -27 -1 -13 -144 -430 -150 -437 -1 -2
-23 6 -49 17 -50 22 -74 62 -76 123 -1 32 -1 31 -19 -17 -10 -27 -19 -57 -19
-66 -1 -11 50 -33 192 -82 105 -37 195 -67 199 -67 3 0 16 28 27 62 l21 62
-37 -36 c-48 -45 -74 -53 -128 -38 l-44 12 75 217 c41 119 76 222 79 229 4 10
12 9 40 -2 19 -8 35 -12 35 -8 0 8 -188 73 -206 71 -5 0 7 -6 26 -13z"/>
<path d="M5396 1023 c-3 -21 -5 -78 -4 -128 l2 -90 5 78 6 78 134 -166 c106
-131 131 -169 120 -176 -8 -5 -19 -9 -26 -9 -6 0 -14 -4 -18 -9 -6 -11 175 47
190 61 5 5 -6 3 -24 -3 -28 -10 -36 -9 -45 3 -47 64 -321 398 -326 398 -4 0
-10 -17 -14 -37z"/>
<path d="M3440 985 c0 -2 14 -8 32 -13 l32 -8 46 -259 c25 -142 50 -260 55
-262 6 -2 73 99 149 223 l139 226 31 -6 c22 -4 27 -3 16 4 -37 24 -55 12 -109
-80 -45 -76 -57 -90 -80 -91 -18 -1 -20 -3 -8 -6 12 -3 16 -10 12 -21 -10 -28
-97 -163 -102 -158 -2 2 -13 55 -23 117 -11 63 -26 149 -35 192 -19 99 -19
107 3 108 9 1 -12 7 -48 15 -36 8 -75 16 -87 19 -13 3 -23 3 -23 0z"/>
<path d="M3628 943 c7 -3 16 -2 19 1 4 3 -2 6 -13 5 -11 0 -14 -3 -6 -6z"/>
<path d="M4876 922 c95 -13 130 -57 160 -202 38 -191 -15 -300 -146 -300 -87
0 -140 62 -165 195 -30 156 -9 251 65 287 19 10 28 18 20 18 -39 0 -116 -71
-146 -135 -47 -100 -27 -221 50 -298 49 -50 89 -68 157 -74 46 -5 66 -1 103
16 87 43 145 135 146 232 0 147 -96 257 -232 264 -59 4 -60 3 -12 -3z"/>
<path d="M3838 903 c6 -2 18 -2 25 0 6 3 1 5 -13 5 -14 0 -19 -2 -12 -5z"/>
<path d="M4212 880 c120 -19 143 -59 143 -245 0 -116 -3 -135 -23 -173 -28
-53 -74 -82 -130 -82 -79 0 -131 36 -148 104 -12 50 -24 37 -24 -29 0 -63 1
-65 23 -60 12 3 42 -1 66 -10 64 -22 119 -19 179 11 230 114 167 472 -85 489
l-58 4 57 -9z"/>
<path d="M4036 855 c-3 -11 -6 -42 -6 -70 l0 -50 28 54 c18 35 38 60 60 72
l33 17 -55 -1 c-46 -2 -56 -5 -60 -22z"/>
<path d="M5972 773 c-1 -24 -6 -43 -10 -43 -5 0 -17 -7 -28 -15 -10 -9 4 -5
31 9 28 13 59 32 70 41 19 16 19 16 -7 1 -39 -23 -46 -20 -51 17 -3 28 -4 26
-5 -10z"/>
<path d="M5384 695 c0 -55 1 -76 3 -47 2 29 2 74 0 100 -2 26 -3 2 -3 -53z"/>
<path d="M3638 733 c6 -2 18 -2 25 0 6 3 1 5 -13 5 -14 0 -19 -2 -12 -5z"/>
<path d="M3688 723 c6 -2 18 -2 25 0 6 3 1 5 -13 5 -14 0 -19 -2 -12 -5z"/>
<path d="M5371 553 c-1 -27 -6 -32 -33 -39 -18 -4 -28 -9 -23 -11 6 -2 42 8
80 22 39 14 58 23 43 20 -14 -3 -33 -8 -41 -11 -11 -4 -17 2 -20 23 -4 28 -4
28 -6 -4z"/>
</g>
</svg>
